<mxfile host="app.diagrams.net" modified="2023-10-23T12:01:04.564Z" agent="Mozilla/5.0 (Macintosh; Intel Mac OS X 10_15_7) AppleWebKit/537.36 (KHTML, like Gecko) Chrome/118.0.0.0 Safari/537.36" etag="JgBhnNeqCQvl6w31OpLf" version="22.0.6" type="github">
  <diagram id="C5RBs43oDa-KdzZeNtuy" name="Page-1">
    <mxGraphModel dx="1085" dy="958" grid="1" gridSize="10" guides="1" tooltips="1" connect="1" arrows="1" fold="1" page="1" pageScale="1" pageWidth="827" pageHeight="1169" math="0" shadow="0">
      <root>
        <mxCell id="WIyWlLk6GJQsqaUBKTNV-0" />
        <mxCell id="WIyWlLk6GJQsqaUBKTNV-1" parent="WIyWlLk6GJQsqaUBKTNV-0" />
        <mxCell id="65D7SEEHSaJXO0t-OZLx-2" style="edgeStyle=orthogonalEdgeStyle;rounded=0;orthogonalLoop=1;jettySize=auto;html=1;" edge="1" parent="WIyWlLk6GJQsqaUBKTNV-1" source="65D7SEEHSaJXO0t-OZLx-0" target="65D7SEEHSaJXO0t-OZLx-1">
          <mxGeometry relative="1" as="geometry" />
        </mxCell>
        <mxCell id="65D7SEEHSaJXO0t-OZLx-0" value="User makes VM creation request" style="rounded=1;whiteSpace=wrap;html=1;" vertex="1" parent="WIyWlLk6GJQsqaUBKTNV-1">
          <mxGeometry x="100" y="100" width="120" height="60" as="geometry" />
        </mxCell>
        <mxCell id="65D7SEEHSaJXO0t-OZLx-5" value="" style="edgeStyle=orthogonalEdgeStyle;rounded=0;orthogonalLoop=1;jettySize=auto;html=1;" edge="1" parent="WIyWlLk6GJQsqaUBKTNV-1" source="65D7SEEHSaJXO0t-OZLx-1" target="65D7SEEHSaJXO0t-OZLx-4">
          <mxGeometry relative="1" as="geometry" />
        </mxCell>
        <mxCell id="65D7SEEHSaJXO0t-OZLx-1" value="Request is placed in a queue" style="rounded=1;whiteSpace=wrap;html=1;" vertex="1" parent="WIyWlLk6GJQsqaUBKTNV-1">
          <mxGeometry x="294" y="100" width="120" height="60" as="geometry" />
        </mxCell>
        <mxCell id="65D7SEEHSaJXO0t-OZLx-7" value="" style="edgeStyle=orthogonalEdgeStyle;rounded=0;orthogonalLoop=1;jettySize=auto;html=1;" edge="1" parent="WIyWlLk6GJQsqaUBKTNV-1" source="65D7SEEHSaJXO0t-OZLx-4" target="65D7SEEHSaJXO0t-OZLx-6">
          <mxGeometry relative="1" as="geometry" />
        </mxCell>
        <mxCell id="65D7SEEHSaJXO0t-OZLx-4" value="Request is processed" style="whiteSpace=wrap;html=1;rounded=1;" vertex="1" parent="WIyWlLk6GJQsqaUBKTNV-1">
          <mxGeometry x="494" y="100" width="120" height="60" as="geometry" />
        </mxCell>
        <mxCell id="65D7SEEHSaJXO0t-OZLx-9" value="" style="edgeStyle=orthogonalEdgeStyle;rounded=0;orthogonalLoop=1;jettySize=auto;html=1;" edge="1" parent="WIyWlLk6GJQsqaUBKTNV-1" source="65D7SEEHSaJXO0t-OZLx-6" target="65D7SEEHSaJXO0t-OZLx-8">
          <mxGeometry relative="1" as="geometry" />
        </mxCell>
        <mxCell id="65D7SEEHSaJXO0t-OZLx-6" value="New container is created and Terraform script is executed" style="whiteSpace=wrap;html=1;rounded=1;" vertex="1" parent="WIyWlLk6GJQsqaUBKTNV-1">
          <mxGeometry x="494" y="240" width="120" height="60" as="geometry" />
        </mxCell>
        <mxCell id="65D7SEEHSaJXO0t-OZLx-11" value="" style="edgeStyle=orthogonalEdgeStyle;rounded=0;orthogonalLoop=1;jettySize=auto;html=1;" edge="1" parent="WIyWlLk6GJQsqaUBKTNV-1" source="65D7SEEHSaJXO0t-OZLx-8" target="65D7SEEHSaJXO0t-OZLx-10">
          <mxGeometry relative="1" as="geometry" />
        </mxCell>
        <mxCell id="65D7SEEHSaJXO0t-OZLx-15" value="" style="edgeStyle=orthogonalEdgeStyle;rounded=0;orthogonalLoop=1;jettySize=auto;html=1;" edge="1" parent="WIyWlLk6GJQsqaUBKTNV-1" source="65D7SEEHSaJXO0t-OZLx-8" target="65D7SEEHSaJXO0t-OZLx-14">
          <mxGeometry relative="1" as="geometry" />
        </mxCell>
        <mxCell id="65D7SEEHSaJXO0t-OZLx-8" value="Terrafrom logs are collected and events are filtered" style="whiteSpace=wrap;html=1;rounded=1;" vertex="1" parent="WIyWlLk6GJQsqaUBKTNV-1">
          <mxGeometry x="494" y="380" width="120" height="60" as="geometry" />
        </mxCell>
        <mxCell id="65D7SEEHSaJXO0t-OZLx-13" value="" style="edgeStyle=orthogonalEdgeStyle;rounded=0;orthogonalLoop=1;jettySize=auto;html=1;" edge="1" parent="WIyWlLk6GJQsqaUBKTNV-1" source="65D7SEEHSaJXO0t-OZLx-10" target="65D7SEEHSaJXO0t-OZLx-12">
          <mxGeometry relative="1" as="geometry" />
        </mxCell>
        <mxCell id="65D7SEEHSaJXO0t-OZLx-10" value="Filtered events are placed in a queue" style="whiteSpace=wrap;html=1;rounded=1;" vertex="1" parent="WIyWlLk6GJQsqaUBKTNV-1">
          <mxGeometry x="294" y="380" width="120" height="60" as="geometry" />
        </mxCell>
        <mxCell id="65D7SEEHSaJXO0t-OZLx-12" value="User is updated with the progress" style="whiteSpace=wrap;html=1;rounded=1;" vertex="1" parent="WIyWlLk6GJQsqaUBKTNV-1">
          <mxGeometry x="94" y="380" width="120" height="60" as="geometry" />
        </mxCell>
        <mxCell id="65D7SEEHSaJXO0t-OZLx-17" value="" style="edgeStyle=orthogonalEdgeStyle;rounded=0;orthogonalLoop=1;jettySize=auto;html=1;" edge="1" parent="WIyWlLk6GJQsqaUBKTNV-1" source="65D7SEEHSaJXO0t-OZLx-14" target="65D7SEEHSaJXO0t-OZLx-16">
          <mxGeometry relative="1" as="geometry" />
        </mxCell>
        <mxCell id="65D7SEEHSaJXO0t-OZLx-19" value="" style="edgeStyle=orthogonalEdgeStyle;rounded=0;orthogonalLoop=1;jettySize=auto;html=1;" edge="1" parent="WIyWlLk6GJQsqaUBKTNV-1" source="65D7SEEHSaJXO0t-OZLx-14" target="65D7SEEHSaJXO0t-OZLx-18">
          <mxGeometry relative="1" as="geometry" />
        </mxCell>
        <mxCell id="65D7SEEHSaJXO0t-OZLx-14" value="VM creation is completed" style="whiteSpace=wrap;html=1;rounded=1;" vertex="1" parent="WIyWlLk6GJQsqaUBKTNV-1">
          <mxGeometry x="494" y="520" width="120" height="60" as="geometry" />
        </mxCell>
        <mxCell id="65D7SEEHSaJXO0t-OZLx-21" value="" style="edgeStyle=orthogonalEdgeStyle;rounded=0;orthogonalLoop=1;jettySize=auto;html=1;" edge="1" parent="WIyWlLk6GJQsqaUBKTNV-1" source="65D7SEEHSaJXO0t-OZLx-16" target="65D7SEEHSaJXO0t-OZLx-20">
          <mxGeometry relative="1" as="geometry" />
        </mxCell>
        <mxCell id="65D7SEEHSaJXO0t-OZLx-16" value="Terraform working directory is archived" style="whiteSpace=wrap;html=1;rounded=1;" vertex="1" parent="WIyWlLk6GJQsqaUBKTNV-1">
          <mxGeometry x="494" y="660" width="120" height="60" as="geometry" />
        </mxCell>
        <mxCell id="65D7SEEHSaJXO0t-OZLx-18" value="User is informed with completion status" style="whiteSpace=wrap;html=1;rounded=1;" vertex="1" parent="WIyWlLk6GJQsqaUBKTNV-1">
          <mxGeometry x="294" y="520" width="120" height="60" as="geometry" />
        </mxCell>
        <mxCell id="65D7SEEHSaJXO0t-OZLx-20" value="VM is destroyed" style="whiteSpace=wrap;html=1;rounded=1;" vertex="1" parent="WIyWlLk6GJQsqaUBKTNV-1">
          <mxGeometry x="494" y="800" width="120" height="60" as="geometry" />
        </mxCell>
      </root>
    </mxGraphModel>
  </diagram>
</mxfile>
